<svg width="104" height="25" viewBox="0 0 104 25" fill="none" xmlns="http://www.w3.org/2000/svg">
<path d="M0 0C13.8071 0 25 11.1929 25 25H2C0.89543 25 0 24.1046 0 23V0Z" fill="#4A6CF7"/>
<path opacity="0.5" d="M6 25C6 11.1929 17.1929 0 31 0V23C31 24.1046 30.1046 25 29 25H6Z" fill="#4A6CF7"/>
<path d="M40.1559 20V4.72727H46.5245C47.668 4.72727 48.625 4.88885 49.3956 5.212C50.1712 5.53516 50.7528 5.98757 51.1406 6.56925C51.5334 7.15092 51.7298 7.82457 51.7298 8.5902C51.7298 9.17188 51.608 9.69141 51.3643 10.1488C51.1207 10.6012 50.7852 10.9766 50.3576 11.2749C49.93 11.5732 49.4354 11.782 48.8736 11.9013V12.0504C49.4901 12.0803 50.0593 12.2468 50.5813 12.5501C51.1083 12.8533 51.5309 13.2759 51.8491 13.8178C52.1673 14.3548 52.3263 14.9911 52.3263 15.7269C52.3263 16.5472 52.1175 17.2805 51.6999 17.9268C51.2823 18.5682 50.6783 19.0753 49.8878 19.4482C49.0973 19.8161 48.1378 20 47.0092 20H40.1559ZM43.8473 17.0245H46.1293C46.9297 17.0245 47.5188 16.8729 47.8967 16.5696C48.2795 16.2663 48.4709 15.8438 48.4709 15.3018C48.4709 14.9091 48.3789 14.571 48.195 14.2876C48.011 13.9993 47.75 13.7781 47.4119 13.6239C47.0739 13.4648 46.6687 13.3853 46.1964 13.3853H43.8473V17.0245ZM43.8473 11.0064H45.8906C46.2933 11.0064 46.6513 10.9393 46.9645 10.805C47.2777 10.6708 47.5213 10.4769 47.6953 10.2234C47.8743 9.96982 47.9638 9.66406 47.9638 9.30611C47.9638 8.79403 47.7823 8.39133 47.4194 8.09801C47.0565 7.80469 46.5668 7.65803 45.9503 7.65803H43.8473V11.0064ZM68.5163 12.3636C68.5163 14.044 68.1932 15.4684 67.5469 16.6367C66.9006 17.805 66.0256 18.6925 64.9219 19.299C63.8232 19.9055 62.5902 20.2088 61.223 20.2088C59.8509 20.2088 58.6154 19.9031 57.5167 19.2915C56.418 18.68 55.5455 17.7926 54.8991 16.6293C54.2578 15.4609 53.9371 14.0391 53.9371 12.3636C53.9371 10.6832 54.2578 9.25888 54.8991 8.09055C55.5455 6.92223 56.418 6.0348 57.5167 5.42827C58.6154 4.82173 59.8509 4.51847 61.223 4.51847C62.5902 4.51847 63.8232 4.82173 64.9219 5.42827C66.0256 6.0348 66.9006 6.92223 67.5469 8.09055C68.1932 9.25888 68.5163 10.6832 68.5163 12.3636ZM64.7429 12.3636C64.7429 11.3693 64.6012 10.5291 64.3178 9.84304C64.0394 9.15696 63.6367 8.63743 63.1097 8.28445C62.5877 7.93146 61.9588 7.75497 61.223 7.75497C60.4922 7.75497 59.8633 7.93146 59.3363 8.28445C58.8093 8.63743 58.4041 9.15696 58.1207 9.84304C57.8423 10.5291 57.7031 11.3693 57.7031 12.3636C57.7031 13.358 57.8423 14.1982 58.1207 14.8842C58.4041 15.5703 58.8093 16.0898 59.3363 16.4428C59.8633 16.7958 60.4922 16.9723 61.223 16.9723C61.9588 16.9723 62.5877 16.7958 63.1097 16.4428C63.6367 16.0898 64.0394 15.5703 64.3178 14.8842C64.6012 14.1982 64.7429 13.358 64.7429 12.3636ZM80.6942 9.71626C80.6097 9.40305 80.4854 9.12713 80.3214 8.88849C80.1573 8.64489 79.956 8.43857 79.7173 8.26953C79.4787 8.1005 79.2053 7.97372 78.897 7.8892C78.5888 7.79972 78.2507 7.75497 77.8828 7.75497C77.142 7.75497 76.5007 7.93395 75.9588 8.2919C75.4219 8.64986 75.0067 9.17187 74.7134 9.85795C74.4201 10.5391 74.2734 11.3668 74.2734 12.3413C74.2734 13.3207 74.4151 14.1559 74.6985 14.8469C74.9819 15.538 75.392 16.065 75.929 16.4279C76.4659 16.7908 77.1172 16.9723 77.8828 16.9723C78.5589 16.9723 79.1307 16.8629 79.598 16.6442C80.0703 16.4205 80.4283 16.1048 80.6719 15.6971C80.9155 15.2894 81.0373 14.8097 81.0373 14.2578L81.7234 14.3398H78.0096V11.6477H84.5945V13.6687C84.5945 15.0359 84.3036 16.2067 83.7219 17.1811C83.1452 18.1555 82.3498 18.9038 81.3356 19.4258C80.3263 19.9478 79.1655 20.2088 77.853 20.2088C76.3963 20.2088 75.1161 19.8931 74.0124 19.2617C72.9087 18.6303 72.0487 17.7305 71.4322 16.5621C70.8157 15.3888 70.5075 13.9968 70.5075 12.386C70.5075 11.1332 70.6939 10.022 71.0668 9.05256C71.4396 8.07812 71.9592 7.25284 72.6254 6.5767C73.2965 5.90057 74.0721 5.38849 74.9521 5.04048C75.837 4.69247 76.7891 4.51847 77.8082 4.51847C78.6932 4.51847 79.516 4.64524 80.2766 4.89879C81.0423 5.15234 81.7184 5.5103 82.305 5.97266C82.8967 6.43501 83.3764 6.98438 83.7443 7.62074C84.1122 8.2571 84.3409 8.95561 84.4304 9.71626H80.6942ZM101.185 12.3636C101.185 14.044 100.862 15.4684 100.216 16.6367C99.5695 17.805 98.6945 18.6925 97.5908 19.299C96.4921 19.9055 95.2591 20.2088 93.892 20.2088C92.5198 20.2088 91.2844 19.9031 90.1856 19.2915C89.0869 18.68 88.2144 17.7926 87.5681 16.6293C86.9268 15.4609 86.6061 14.0391 86.6061 12.3636C86.6061 10.6832 86.9268 9.25888 87.5681 8.09055C88.2144 6.92223 89.0869 6.0348 90.1856 5.42827C91.2844 4.82173 92.5198 4.51847 93.892 4.51847C95.2591 4.51847 96.4921 4.82173 97.5908 5.42827C98.6945 6.0348 99.5695 6.92223 100.216 8.09055C100.862 9.25888 101.185 10.6832 101.185 12.3636ZM97.4118 12.3636C97.4118 11.3693 97.2702 10.5291 96.9868 9.84304C96.7084 9.15696 96.3057 8.63743 95.7787 8.28445C95.2567 7.93146 94.6278 7.75497 93.892 7.75497C93.1611 7.75497 92.5322 7.93146 92.0052 8.28445C91.4782 8.63743 91.0731 9.15696 90.7897 9.84304C90.5113 10.5291 90.3721 11.3693 90.3721 12.3636C90.3721 13.358 90.5113 14.1982 90.7897 14.8842C91.0731 15.5703 91.4782 16.0898 92.0052 16.4428C92.5322 16.7958 93.1611 16.9723 93.892 16.9723C94.6278 16.9723 95.2567 16.7958 95.7787 16.4428C96.3057 16.0898 96.7084 15.5703 96.9868 14.8842C97.2702 14.1982 97.4118 13.358 97.4118 12.3636Z" fill="black"/>
</svg>
